<?xml version="1.0" encoding="UTF-8"?>
<!DOCTYPE svg PUBLIC "-//W3C//DTD SVG 1.1//EN" "http://www.w3.org/Graphics/SVG/1.1/DTD/svg11.dtd">
<svg xmlns="http://www.w3.org/2000/svg" version="1.1" width="2481px" height="2481px" style="shape-rendering:geometricPrecision; text-rendering:geometricPrecision; image-rendering:optimizeQuality; fill-rule:evenodd; clip-rule:evenodd" xmlns:xlink="http://www.w3.org/1999/xlink">
<g><path style="opacity:1" fill="#fffefe" d="M -0.5,-0.5 C 826.5,-0.5 1653.5,-0.5 2480.5,-0.5C 2480.5,826.5 2480.5,1653.5 2480.5,2480.5C 1653.5,2480.5 826.5,2480.5 -0.5,2480.5C -0.5,1653.5 -0.5,826.5 -0.5,-0.5 Z"/></g>
<g><path style="opacity:1" fill="#fe0603" d="M 602.5,1309.5 C 606.364,1310.53 606.364,1310.2 602.5,1308.5C 531.317,1269.49 474.15,1215.49 431,1146.5C 381.065,1066.36 350.398,979.364 339,885.5C 345.875,875.792 353.542,875.125 362,883.5C 389.584,946.018 426.25,1002.35 472,1052.5C 507.645,1090.8 549.811,1119.63 598.5,1139C 600.447,1139.99 602.447,1140.32 604.5,1140C 526.377,1083.89 463.877,1014.06 417,930.5C 357.858,815.888 343.524,695.888 374,570.5C 376.324,560.028 380.157,550.195 385.5,541C 392.982,536.913 399.482,538.079 405,544.5C 414.845,639.706 445.179,727.706 496,808.5C 554.782,901.283 631.282,975.783 725.5,1032C 740.096,1040.22 754.929,1048.05 770,1055.5C 745.771,997.79 729.438,937.79 721,875.5C 718.72,867.565 721.22,861.731 728.5,858C 734.523,856.675 739.689,858.175 744,862.5C 759.941,906.746 783.275,946.413 814,981.5C 830.662,999.542 849.495,1014.37 870.5,1026C 809.558,961.637 769.391,885.804 750,798.5C 732.288,715.602 729.954,632.268 743,548.5C 748.578,537.261 756.245,535.594 766,543.5C 766.419,544.672 767.085,545.672 768,546.5C 775.715,613.302 793.381,677.302 821,738.5C 843.502,786.328 875.002,827.161 915.5,861C 917.369,862.602 919.369,863.602 921.5,864C 862.438,785.017 823.605,696.85 805,599.5C 784.492,468.352 810.825,347.685 884,237.5C 889.241,227.953 896.741,225.453 906.5,230C 909.5,232.667 911.167,236 911.5,240C 890.105,341.75 894.939,442.25 926,541.5C 964.172,667.431 1033.01,772.931 1132.5,858C 1152.26,875.045 1173.26,890.378 1195.5,904C 1222.58,925.044 1252.24,941.71 1284.5,954C 1334.58,971.769 1384.91,988.769 1435.5,1005C 1478.17,1019.55 1519.84,1036.21 1560.5,1055C 1581.14,1064.81 1601.14,1075.64 1620.5,1087.5C 1659.26,1076.03 1698.59,1067.03 1738.5,1060.5C 1668.09,1009.78 1592.09,968.616 1510.5,937C 1504.88,931.152 1504.04,924.652 1508,917.5C 1509.58,915.959 1511.41,914.792 1513.5,914C 1545.13,911.051 1576.79,910.718 1608.5,913C 1673.61,918.681 1737.94,929.015 1801.5,944C 1913.67,971.17 2023.67,1005.17 2131.5,1046C 2140.03,1049.01 2142.86,1054.84 2140,1063.5C 2138.54,1065.96 2136.71,1068.13 2134.5,1070C 2079.6,1081.97 2027.6,1101.63 1978.5,1129C 1938.45,1150.68 1900.45,1175.34 1864.5,1203C 1862.61,1203.97 1860.61,1204.64 1858.5,1205C 1826.44,1232.06 1795.94,1260.89 1767,1291.5C 1761.23,1297.42 1756.07,1303.76 1751.5,1310.5C 1755.57,1372.42 1745.07,1431.76 1720,1488.5C 1695.2,1542.81 1663.86,1592.81 1626,1638.5C 1570.11,1705.06 1507.28,1763.9 1437.5,1815C 1387.58,1860.85 1331.25,1897.19 1268.5,1924C 1196.12,1954.18 1121.12,1975.18 1043.5,1987C 1014.22,1991.16 984.888,1994.66 955.5,1997.5C 957.281,2019.02 963.447,2039.35 974,2058.5C 996.548,2096.05 1026.72,2125.88 1064.5,2148C 1103.03,2169.74 1143.69,2186.4 1186.5,2198C 1235.3,2210.88 1284.8,2220.04 1335,2225.5C 1545.4,2213.37 1722.23,2130.87 1865.5,1978C 1879.76,1973.61 1886.26,1978.77 1885,1993.5C 1884.33,1994.83 1883.67,1996.17 1883,1997.5C 1740.92,2148.11 1566.09,2232.28 1358.5,2250C 1238.73,2257.14 1121.4,2243.8 1006.5,2210C 935.606,2188.53 870.94,2155.53 812.5,2111C 768.746,2076.26 732.579,2035.1 704,1987.5C 680.381,1944.94 686.881,1907.78 723.5,1876C 748.99,1857.26 776.99,1843.26 807.5,1834C 862.517,1818.33 918.517,1807.66 975.5,1802C 1026.78,1753.42 1072.11,1700.08 1111.5,1642C 1067.9,1650.79 1023.9,1657.45 979.5,1662C 923.195,1668.09 867.195,1666.09 811.5,1656C 698.994,1632.2 609.494,1573.7 543,1480.5C 535.829,1469.5 529.162,1458.16 523,1446.5C 519.94,1439.44 521.44,1433.61 527.5,1429C 531.039,1427.5 534.705,1427.16 538.5,1428C 553.167,1438 567.833,1448 582.5,1458C 608.349,1473.31 636.349,1479.97 666.5,1478C 625.272,1460.74 588.272,1437.07 555.5,1407C 494.838,1349.19 447.338,1282.02 413,1205.5C 411.833,1193.33 417.333,1187.83 429.5,1189C 431.249,1190.29 433.082,1191.46 435,1192.5C 468.042,1236.55 509.208,1270.72 558.5,1295C 572.628,1301.54 587.294,1306.38 602.5,1309.5 Z"/></g>
<g><path style="opacity:1" fill="#ff8a89" d="M 874.5,308.5 C 874.737,307.209 874.404,306.209 873.5,305.5C 873.783,304.711 874.283,304.044 875,303.5C 875.78,305.387 875.613,307.054 874.5,308.5 Z"/></g>
<g><path style="opacity:1" fill="#fffefe" d="M 873.5,305.5 C 874.404,306.209 874.737,307.209 874.5,308.5C 867.49,403.265 880.324,495.265 913,584.5C 957.923,708.907 1032.09,812.074 1135.5,894C 1154.64,908.737 1174.31,922.737 1194.5,936C 1225.09,956.884 1258.09,973.217 1293.5,985C 1339.39,1000.64 1385.39,1015.97 1431.5,1031C 1484.84,1048.61 1536.17,1070.78 1585.5,1097.5C 1546.69,1110.9 1509.02,1127.07 1472.5,1146C 1456.96,1154.9 1441.46,1163.73 1426,1172.5C 1359.74,1149.31 1291.9,1132.81 1222.5,1123C 1187.55,1121.59 1152.55,1120.26 1117.5,1119C 1076.16,1118.75 1034.83,1118.08 993.5,1117C 961.218,1116.34 929.551,1111.67 898.5,1103C 884.488,1097.58 870.154,1093.25 855.5,1090C 838.986,1084.67 822.82,1078.5 807,1071.5C 789.077,1036.67 775.41,1000.34 766,962.5C 799.397,1011.44 843.564,1046.94 898.5,1069C 907.951,1072.45 917.618,1075.11 927.5,1077C 932.949,1077.9 938.282,1077.56 943.5,1076C 949.965,1070.8 951.131,1064.64 947,1057.5C 866.585,998.731 812.251,921.398 784,825.5C 767.296,767.345 759.629,708.012 761,647.5C 778.225,717.944 809.225,781.277 854,837.5C 881.702,870.214 914.869,895.714 953.5,914C 959.149,916.439 964.983,918.272 971,919.5C 982.484,917.202 986.151,910.536 982,899.5C 928.251,837.306 886.251,767.639 856,690.5C 819.209,590.632 814.542,489.299 842,386.5C 850.25,358.577 860.75,331.577 873.5,305.5 Z"/></g>
<g><path style="opacity:1" fill="#fffefe" d="M 582.5,1489.5 C 582.5,1488.83 582.833,1488.5 583.5,1488.5C 604.167,1497.58 625.834,1502.75 648.5,1504C 680.967,1505.73 712.967,1502.73 744.5,1495C 751.07,1491.34 753.237,1485.84 751,1478.5C 749.5,1475.67 747.333,1473.5 744.5,1472C 694.072,1464.61 648.405,1445.94 607.5,1416C 557.34,1378.2 516.174,1332.7 484,1279.5C 532.703,1318.52 588.37,1339.18 651,1341.5C 660.928,1341.73 670.761,1340.9 680.5,1339C 688.429,1336.31 691.596,1330.81 690,1322.5C 689.117,1319.9 687.617,1317.73 685.5,1316C 593.028,1285.18 519.194,1229.68 464,1149.5C 428.778,1097.39 402.445,1041.05 385,980.5C 421.796,1042.63 470.296,1093.8 530.5,1134C 562.271,1154.05 596.605,1167.72 633.5,1175C 645.475,1177.67 657.475,1178 669.5,1176C 675.115,1171.87 676.948,1166.37 675,1159.5C 673.859,1157.39 672.359,1155.56 670.5,1154C 595.653,1107.83 531.486,1049.66 478,979.5C 400.135,871.036 371.135,750.703 391,618.5C 408.763,701.336 441.763,777.336 490,846.5C 545.136,925.305 612.969,990.805 693.5,1043C 723.85,1061.68 755.516,1078.01 788.5,1092C 814.098,1140.27 848.431,1181.27 891.5,1215C 873.191,1211.51 856.524,1204.18 841.5,1193C 830.466,1182.3 819.133,1171.96 807.5,1162C 801.791,1155.96 796.457,1149.63 791.5,1143C 785.833,1139.67 780.167,1139.67 774.5,1143C 770.809,1147.17 769.642,1152.01 771,1157.5C 794.66,1239.02 836.827,1309.19 897.5,1368C 942.798,1408.17 994.465,1437.83 1052.5,1457C 1099.2,1472.12 1146.87,1482.95 1195.5,1489.5C 1177.62,1531.27 1156.62,1571.27 1132.5,1609.5C 1059.87,1628.14 986.036,1638.14 911,1639.5C 777.595,1640.59 668.095,1590.59 582.5,1489.5 Z"/></g>
<g><path style="opacity:1" fill="#fffdfd" d="M 1578.5,938.5 C 1580.3,937.838 1582.3,937.505 1584.5,937.5C 1629.19,939.638 1673.52,944.805 1717.5,953C 1835.5,976.418 1951.17,1008.42 2064.5,1049C 1967.31,1041.73 1870.31,1043.73 1773.5,1055C 1713.71,1008.08 1648.71,969.244 1578.5,938.5 Z"/></g>
<g><path style="opacity:1" fill="#fffdfc" d="M 1909.5,1070.5 C 1945.85,1070.11 1982.18,1070.61 2018.5,1072C 1963.52,1098.81 1911.85,1130.64 1863.5,1167.5C 1848.56,1133.72 1827.56,1104.22 1800.5,1079C 1812.09,1077.07 1823.76,1075.74 1835.5,1075C 1860.31,1073.16 1884.97,1071.66 1909.5,1070.5 Z"/></g>
<g><path style="opacity:1" fill="#fffefe" d="M 1757.5,1083.5 C 1760.85,1083.33 1764.18,1083.5 1767.5,1084C 1796.69,1108.51 1819.86,1137.68 1837,1171.5C 1838.8,1175.73 1840.3,1180.06 1841.5,1184.5C 1808.33,1212.83 1776.83,1243.16 1747,1275.5C 1739.03,1239.56 1726.03,1205.56 1708,1173.5C 1692.09,1147.59 1671.93,1125.42 1647.5,1107C 1661.59,1102.56 1675.92,1098.89 1690.5,1096C 1712.93,1091.63 1735.27,1087.47 1757.5,1083.5 Z"/></g>
<g><path style="opacity:1" fill="#fffefe" d="M 828.5,1107.5 C 835.017,1110.3 841.684,1112.8 848.5,1115C 864.474,1118.66 880.141,1123.33 895.5,1129C 929.568,1137.96 964.235,1142.63 999.5,1143C 1059.84,1143.87 1120.18,1145.21 1180.5,1147C 1255.79,1151.82 1329.12,1166.49 1400.5,1191C 1323.55,1247.29 1266.72,1319.45 1230,1407.5C 1223.06,1426.32 1215.73,1444.99 1208,1463.5C 1141.92,1457.69 1078.09,1441.52 1016.5,1415C 951.885,1385.72 899.385,1341.89 859,1283.5C 842.254,1258.52 827.421,1232.35 814.5,1205C 854.864,1237.69 901.197,1251.02 953.5,1245C 959.667,1241.15 961.834,1235.65 960,1228.5C 958.878,1226.38 957.378,1224.54 955.5,1223C 901.582,1197.25 859.249,1158.75 828.5,1107.5 Z"/></g>
<g><path style="opacity:1" fill="#fffefe" d="M 1613.5,1115.5 C 1641.26,1131.76 1664.1,1153.42 1682,1180.5C 1704.97,1217.75 1718.97,1258.08 1724,1301.5C 1686.79,1345.38 1653.45,1392.05 1624,1441.5C 1621.56,1371.49 1597.56,1310.15 1552,1257.5C 1540.86,1245.36 1529.36,1233.53 1517.5,1222C 1498.73,1207.25 1478.39,1194.92 1456.5,1185C 1506.25,1155.79 1558.59,1132.62 1613.5,1115.5 Z"/></g>
<g><path style="opacity:1" fill="#fffefe" d="M 1428.5,1202.5 C 1463.96,1214.14 1494.46,1233.47 1520,1260.5C 1551.33,1293.13 1574,1331.13 1588,1374.5C 1598.72,1415.1 1600.38,1456.1 1593,1497.5C 1583.06,1517.71 1573.39,1538.05 1564,1558.5C 1550.33,1591.5 1536.67,1624.5 1523,1657.5C 1513.07,1676.37 1501.41,1694.03 1488,1710.5C 1504.07,1650.1 1492.07,1596.1 1452,1548.5C 1425.54,1518.69 1393.37,1497.52 1355.5,1485C 1351.2,1483.84 1346.87,1482.84 1342.5,1482C 1306.01,1478.56 1269.68,1474.06 1233.5,1468.5C 1242.29,1447.62 1250.79,1426.62 1259,1405.5C 1296.7,1322.09 1353.2,1254.43 1428.5,1202.5 Z"/></g>
<g><path style="opacity:1" fill="#ff8b8b" d="M 602.5,1308.5 C 606.364,1310.2 606.364,1310.53 602.5,1309.5C 602.5,1309.17 602.5,1308.83 602.5,1308.5 Z"/></g>
<g><path style="opacity:1" fill="#fffdfd" d="M 1725.5,1340.5 C 1726.48,1343.96 1726.81,1347.63 1726.5,1351.5C 1723.83,1397.5 1713,1441.5 1694,1483.5C 1669.95,1534.5 1639.95,1581.5 1604,1624.5C 1579.62,1653.5 1553.62,1681.17 1526,1707.5C 1525.83,1707.17 1525.67,1706.83 1525.5,1706.5C 1547.69,1672.81 1567.85,1637.81 1586,1601.5C 1599.74,1571.27 1610.08,1539.94 1617,1507.5C 1647.69,1448.08 1683.85,1392.42 1725.5,1340.5 Z"/></g>
<g><path style="opacity:1" fill="#ff8e8e" d="M 1726.5,1351.5 C 1726.81,1347.63 1726.48,1343.96 1725.5,1340.5C 1725.78,1339.71 1726.28,1339.04 1727,1338.5C 1727.81,1343.02 1727.65,1347.35 1726.5,1351.5 Z"/></g>
<g><path style="opacity:1" fill="#ff8b87" d="M 583.5,1488.5 C 582.833,1488.5 582.5,1488.83 582.5,1489.5C 580.915,1489 580.415,1488 581,1486.5C 581.995,1487.07 582.828,1487.73 583.5,1488.5 Z"/></g>
<g><path style="opacity:1" fill="#fffefe" d="M 1222.5,1494.5 C 1260.14,1498.7 1297.81,1502.86 1335.5,1507C 1385.6,1519.44 1424.1,1547.61 1451,1591.5C 1468.35,1622.25 1473.35,1654.92 1466,1689.5C 1456.83,1724.5 1440.83,1755.83 1418,1783.5C 1419.38,1764.55 1419.72,1745.55 1419,1726.5C 1412.14,1662.99 1378.3,1621.82 1317.5,1603C 1267.69,1590.58 1217.86,1590.41 1168,1602.5C 1187.4,1567.37 1205.57,1531.37 1222.5,1494.5 Z"/></g>
<g><path style="opacity:1" fill="#fffefe" d="M 1220.5,1619.5 C 1258.16,1615.94 1294.49,1621.11 1329.5,1635C 1367.31,1653.73 1388.47,1684.23 1393,1726.5C 1395.33,1760.83 1391.67,1794.49 1382,1827.5C 1346.19,1855.34 1307.36,1878.5 1265.5,1897C 1192,1928.46 1115.67,1950.13 1036.5,1962C 1008.26,1966.01 979.923,1969.18 951.5,1971.5C 951.357,1919.1 964.19,1870.1 990,1824.5C 1050.76,1766.79 1103.59,1702.95 1148.5,1633C 1172.39,1627.12 1196.39,1622.62 1220.5,1619.5 Z"/></g>
<g><path style="opacity:1" fill="#fffdfd" d="M 937.5,1832.5 C 938.873,1832.34 940.207,1832.51 941.5,1833C 876.698,1888.43 804.698,1932.76 725.5,1966C 724.216,1966.68 723.049,1966.52 722,1965.5C 712.361,1943.74 715.028,1923.74 730,1905.5C 745.355,1890.83 762.855,1879.33 782.5,1871C 814.817,1857.92 848.15,1848.25 882.5,1842C 900.933,1838.6 919.266,1835.43 937.5,1832.5 Z"/></g>
<g><path style="opacity:1" fill="#fffdfd" d="M 941.5,1865.5 C 942.376,1865.37 943.043,1865.7 943.5,1866.5C 931.128,1901.07 925.128,1936.73 925.5,1973.5C 874.186,1975.65 822.852,1975.98 771.5,1974.5C 818.118,1951.54 862.451,1925.04 904.5,1895C 917.268,1885.63 929.601,1875.79 941.5,1865.5 Z"/></g>
<g><path style="opacity:1" fill="#fffdfd" d="M 742.5,1998.5 C 772.935,2000.91 803.435,2001.91 834,2001.5C 865.518,2001.55 897.018,2000.89 928.5,1999.5C 936.665,2052.67 960.665,2097.17 1000.5,2133C 1046.57,2171.88 1098.91,2199.54 1157.5,2216C 1070.13,2206.07 987.132,2181.41 908.5,2142C 849.408,2111.92 798.908,2071.09 757,2019.5C 751.921,2012.6 747.087,2005.6 742.5,1998.5 Z"/></g>
</svg>
